<?xml version="1.0" encoding="UTF-8" standalone="no"?>
<svg
   xmlns:dc="http://purl.org/dc/elements/1.1/"
   xmlns:cc="http://creativecommons.org/ns#"
   xmlns:rdf="http://www.w3.org/1999/02/22-rdf-syntax-ns#"
   xmlns:svg="http://www.w3.org/2000/svg"
   xmlns="http://www.w3.org/2000/svg"
   width="96"
   height="32"
   viewBox="0 0 25.4 8.4666669"
   version="1.1"
   id="svg8">
  <defs
     id="defs2">
    <rect
       id="rect862"
       height="26.170744"
       width="72.329033"
       y="224.84814"
       x="27.720461" />
    <rect
       id="rect847"
       height="32.333801"
       width="105.74577"
       y="230.06319"
       x="-48.852222" />
    <rect
       id="rect993"
       height="47.894699"
       width="75.958"
       y="207.35225"
       x="14.883747" />
    <rect
       id="rect139"
       height="46.56881"
       width="90.697334"
       y="220.30203"
       x="13.17174" />
  </defs>
  <metadata
     id="metadata5">
    <rdf:RDF>
      <cc:Work
         rdf:about="">
        <dc:format>image/svg+xml</dc:format>
        <dc:type
           rdf:resource="http://purl.org/dc/dcmitype/StillImage" />
        <dc:title></dc:title>
      </cc:Work>
    </rdf:RDF>
  </metadata>
  <g
     id="g28"
     transform="matrix(0.21847689,0,0,0.21847689,3.1027522,-52.893449)">
    <path
       id="path63-3-7-2-9"
       style="font-style:normal;font-variant:normal;font-weight:normal;font-stretch:normal;font-size:40px;line-height:1.25;font-family:Bahnschrift;-inkscape-font-specification:Bahnschrift;letter-spacing:0px;word-spacing:0px;fill:#2c5aa0;fill-opacity:1;stroke:#000000;stroke-width:0"
       d="m 72.272329,243.31192 c -11.355407,0.61855 -15.919286,5.15926 -21.792201,9.68274 -1.008895,0.93179 -2.172165,1.81841 -2.708138,3.15955 0.04346,1.32575 1.865311,0.7262 2.658729,0.63471 1.451708,-0.33546 2.987728,-0.15975 4.761054,0.62034 3.948219,1.61383 5.228199,-1.66497 11.854318,-5.85346 3.126696,-2.09471 7.848157,-3.79328 10.345792,-5.62717 2.362744,-2.27646 -2.196925,-2.56676 -5.119554,-2.61671 z" />
    <path
       d="m 14.695702,279.64299 c 11.355407,-0.61855 15.919286,-5.15926 21.792201,-9.68274 1.008896,-0.93179 2.172165,-1.81841 2.708139,-3.15955 -0.04346,-1.32574 -1.865311,-0.72619 -2.65873,-0.6347 -1.451708,0.33545 -2.987728,0.15974 -4.761053,-0.62034 -3.94822,-1.61384 -5.2282,1.66496 -11.85432,5.85345 -3.126695,2.09471 -7.848155,3.79329 -10.3457896,5.62717 -2.3627443,2.27646 2.1969246,2.56676 5.1195526,2.61671 z"
       style="font-style:normal;font-variant:normal;font-weight:normal;font-stretch:normal;font-size:40px;line-height:1.25;font-family:Bahnschrift;-inkscape-font-specification:Bahnschrift;letter-spacing:0px;word-spacing:0px;fill:#2c5aa0;fill-opacity:1;stroke:#000000;stroke-width:0"
       id="path63-3-7-2" />
    <g
       style="font-style:normal;font-variant:normal;font-weight:bold;font-stretch:normal;font-size:10.5833px;line-height:1.25;font-family:Ubuntu;-inkscape-font-specification:'Ubuntu Bold';white-space:pre;shape-inside:url(#rect847);fill:#006680;fill-opacity:1;stroke:#006680;stroke-width:0.504202;stroke-linejoin:miter;stroke-miterlimit:4;stroke-dasharray:none;stroke-opacity:1"
       id="text845"
       transform="matrix(1.0088835,0,0,1.038416,74.752724,-5.070249)"
       aria-label="DRON" />
    <path
       id="path197"
       style="font-style:normal;font-variant:normal;font-weight:bold;font-stretch:normal;font-size:39.5783px;line-height:1.25;font-family:Gadugi;-inkscape-font-specification:'Gadugi Bold';letter-spacing:0px;word-spacing:0px;fill:#999999;fill-opacity:1;stroke:none;stroke-width:0.57113;stroke-opacity:1"
       d="m 43.724451,256.17888 c -1.206955,0 -2.17109,0.48518 -2.892408,1.45558 -0.71417,0.9628 -1.071259,2.24024 -1.071259,3.83228 0,1.6072 0.353519,2.88463 1.060551,3.83227 0.714171,0.94006 1.653312,1.41009 2.817416,1.41009 1.199811,0 2.146091,-0.45488 2.838843,-1.36461 0.699893,-0.92488 1.049836,-2.19475 1.049836,-3.80953 0,-1.67544 -0.335664,-2.98318 -1.006985,-3.92325 -0.671323,-0.95523 -1.603323,-1.43283 -2.795994,-1.43283 z m 2.866607,13.01617 c 0.625045,0.69601 1.62114,1.30664 2.357989,1.55096 0.703022,0.28188 2.349483,0.0708 3.545473,0.0713 -2.638198,3.13287 -5.626394,2.70339 -7.82514,0.85892 -0.507063,-0.56861 -1.246216,-1.20546 -1.796128,-1.85743 -1.049834,-0.0303 -1.794813,-0.23256 -2.651825,-0.66468 -0.857012,-0.43215 -1.589041,-1.0121 -2.196085,-1.7399 -0.607047,-0.73536 -1.078402,-1.59583 -1.414064,-2.58138 -0.328524,-0.98555 -0.492783,-2.04313 -0.492783,-3.17272 0,-2.58517 0.699892,-4.66999 2.09967,-6.25444 1.406924,-1.59205 3.281631,-2.38808 5.624127,-2.38808 2.178229,0 3.942241,0.76571 5.292031,2.2971 1.356929,1.51624 2.035396,3.52144 2.035396,6.01564 0,1.94836 -0.412006,3.62138 -1.240447,5.0239 -1.002794,1.40119 -2.110077,2.32856 -3.338214,2.84098 z" />
    <path
       id="path199"
       style="font-style:normal;font-variant:normal;font-weight:bold;font-stretch:normal;font-size:39.5783px;line-height:1.25;font-family:Gadugi;-inkscape-font-specification:'Gadugi Bold';letter-spacing:0px;word-spacing:0px;fill:#999999;fill-opacity:1;stroke:none;stroke-width:0.57113"
       d="m 60.565863,272.99135 c 0.24228,-3.76795 -1.026033,-0.0457 -3.406594,0.0632 -2.542464,0 -3.813694,-1.63374 -3.813694,-4.90122 v -7.02773 h 3.374476 v 6.70933 c 0,1.6451 0.614193,2.46765 1.842572,2.46765 0.607047,0 1.092684,-0.22364 1.456913,-0.67093 0.364229,-0.45486 0.546344,-1.06893 0.546344,-1.84222 v -6.66383 h 3.374475 c -0.02457,8.00036 0.868059,12.05513 -3.374492,11.86568 z" />
    <path
       id="path201"
       style="font-style:normal;font-variant:normal;font-weight:bold;font-stretch:normal;font-size:39.5783px;line-height:1.25;font-family:Gadugi;-inkscape-font-specification:'Gadugi Bold';letter-spacing:0px;word-spacing:0px;fill:#999999;fill-opacity:1;stroke:none;stroke-width:0.57113"
       d="m 76.911122,267.97145 h -7.156029 c 0.114263,1.6906 1.117684,2.5359 3.010246,2.5359 1.206955,0 2.267506,-0.30325 3.181646,-0.90972 -0.151947,2.00531 -1.009214,3.08081 -3.952952,3.45699 -1.771153,0 -3.145937,-0.51931 -4.124357,-1.55793 -0.97842,-1.0462 -1.467628,-2.50179 -1.467628,-4.36674 0,-1.9332 0.528487,-3.4646 1.585467,-4.59419 1.056974,-1.12959 2.356769,-1.69438 3.899388,-1.69438 1.599754,0 2.835272,0.50414 3.706563,1.51243 0.878436,1.00829 1.317656,2.3767 1.317656,4.10521 z m -3.138797,-2.2061 c 0,-1.66787 -0.635617,-2.50179 -1.906847,-2.50179 -0.542773,0 -1.014126,0.23879 -1.414066,0.71643 -0.39279,0.47759 -0.632039,1.07273 -0.717746,1.78536 z" />
    <path
       id="path203"
       style="font-style:normal;font-variant:normal;font-weight:bold;font-stretch:normal;font-size:39.5783px;line-height:1.25;font-family:Gadugi;-inkscape-font-specification:'Gadugi Bold';letter-spacing:0px;word-spacing:0px;fill:#999999;fill-opacity:1;stroke:none;stroke-width:0.57113"
       d="m 88.190054,264.67918 c -1.122249,-1.27001 -4.022533,-1.04202 -4.94568,0.19915 -0.414223,0.56859 -0.621334,1.34567 -0.621334,2.33123 v 5.56077 h -3.385191 c -0.06705,-6.56248 -1.046381,-11.8341 3.385191,-11.64466 -0.186925,4.54881 0.595102,-0.0877 2.935258,-0.20469 0.357082,0 0.635611,0.0456 0.835581,0.13645 z" />
    <path
       id="path205"
       style="font-style:normal;font-variant:normal;font-weight:bold;font-stretch:normal;font-size:39.5783px;line-height:1.25;font-family:Gadugi;-inkscape-font-specification:'Gadugi Bold';letter-spacing:0px;word-spacing:0px;fill:#2c5aa0;fill-opacity:1;stroke:none;stroke-width:0.57113"
       d="M 98.424153,261.12567 93.9677,273.70282 c -1.753612,5.01023 -6.255907,4.91846 -6.866784,1.37597 0.449928,0.28051 0.939136,0.42075 1.467629,0.42075 1.61287,-0.2085 2.907252,-3.6765 3.16521,-5.25252 l -5.924745,-9.31869 c 8.290451,-0.0288 5.95373,12.21388 9.262086,0.19734 z" />
    <g
       style="font-style:normal;font-variant:normal;font-weight:bold;font-stretch:normal;font-size:10.5833px;line-height:1.25;font-family:Ubuntu;-inkscape-font-specification:'Ubuntu Bold';white-space:pre;shape-inside:url(#rect862);fill:#2c5aa0;fill-opacity:1;stroke:#2c5aa0;stroke-width:0.264583;stroke-miterlimit:4;stroke-dasharray:none;stroke-opacity:1"
       id="text860"
       transform="matrix(0.90075319,0,0,0.97146497,-36.639259,29.484169)"
       aria-label="DRON">
      <path
         id="path866"
         style="font-style:normal;font-variant:normal;font-weight:bold;font-stretch:normal;font-size:16.9333px;font-family:Ubuntu;-inkscape-font-specification:'Ubuntu Bold';letter-spacing:0.79375px;fill:#2c5aa0;fill-opacity:1;stroke:#2c5aa0;stroke-width:0.264583;stroke-miterlimit:4;stroke-dasharray:none;stroke-opacity:1"
         d="m 31.716962,238.4873 q 0.186266,0.0169 0.423332,0.0339 0.254,0 0.592666,0 1.981196,0 2.929461,-0.99906 0.965198,-0.99907 0.965198,-2.76013 0,-1.84573 -0.914398,-2.79399 -0.914398,-0.94827 -2.895595,-0.94827 -0.270932,0 -0.558798,0.0169 -0.287867,0 -0.541866,0.0339 z m 7.636918,-3.72533 q 0,1.524 -0.474132,2.65853 -0.474133,1.13453 -1.354664,1.8796 -0.863598,0.74506 -2.116663,1.11759 -1.253064,0.37254 -2.810927,0.37254 -0.711199,0 -1.659464,-0.0677 -0.948265,-0.0508 -1.862663,-0.23706 v -11.42998 q 0.914398,-0.16933 1.89653,-0.22013 0.999064,-0.0677 1.710263,-0.0677 1.507064,0 2.726261,0.33867 1.236131,0.33867 2.116663,1.0668 0.880531,0.72813 1.354664,1.86266 0.474132,1.13453 0.474132,2.72626 z" />
      <path
         id="path868"
         style="font-style:normal;font-variant:normal;font-weight:bold;font-stretch:normal;font-size:16.9333px;font-family:Ubuntu;-inkscape-font-specification:'Ubuntu Bold';letter-spacing:0.79375px;fill:#2c5aa0;fill-opacity:1;stroke:#2c5aa0;stroke-width:0.264583;stroke-miterlimit:4;stroke-dasharray:none;stroke-opacity:1"
         d="m 45.775042,228.76758 c 1.761063,0 3.110082,0.31609 4.047058,0.94827 0.936976,0.62089 1.405464,1.59173 1.405464,2.91253 0,0.82409 -0.191911,1.49577 -0.575732,2.01506 -0.372533,0.508 -0.914398,0.90875 -1.625597,1.20226 0.237067,0.29351 0.485422,0.63218 0.745065,1.016 0.259644,0.37253 0.513644,0.76764 0.761999,1.18533 0.259644,0.4064 0.507999,0.83538 0.745065,1.28693 0.237066,0.44027 0.457199,0.87489 0.660399,1.30387 -2.383707,-0.0779 -2.820287,0.23901 -3.623726,-1.1684 -0.214489,-0.39511 -0.440266,-0.77894 -0.677332,-1.15147 -0.644298,-1.26338 -1.530043,-1.96492 -2.658528,-1.96426 v 4.28413 h -2.641595 v -11.56545 c 0.575732,-0.11289 1.168397,-0.19191 1.777996,-0.23706 0.620888,-0.0451 1.174043,-0.0677 1.659464,-0.0677 z m 0.152399,2.25213 c -0.191911,0 -0.366888,0.006 -0.524932,0.0169 -0.146755,0.0113 -0.287866,0.0226 -0.423332,0.0339 v 3.18346 h 0.745065 c 0.99342,0 1.704619,-0.12418 2.133596,-0.37253 0.428977,-0.24835 0.643465,-0.67169 0.643465,-1.27 0,-0.57573 -0.220133,-0.98213 -0.660399,-1.2192 -0.428977,-0.24835 -1.066798,-0.37253 -1.913463,-0.37253 z" />
      <path
         id="path870"
         style="font-style:normal;font-variant:normal;font-weight:bold;font-stretch:normal;font-size:16.9333px;font-family:Ubuntu;-inkscape-font-specification:'Ubuntu Bold';letter-spacing:0.79375px;fill:#2c5aa0;fill-opacity:1;stroke:#2c5aa0;stroke-width:0.264583;stroke-miterlimit:4;stroke-dasharray:none;stroke-opacity:1"
         d="m 56.362855,234.76197 q 0,0.8636 0.203199,1.55786 0.220133,0.69427 0.609599,1.20227 0.406399,0.49106 0.982132,0.762 0.575732,0.27093 1.320797,0.27093 0.728132,0 1.303864,-0.27093 0.592666,-0.27094 0.982131,-0.762 0.4064,-0.508 0.609599,-1.20227 0.220133,-0.69426 0.220133,-1.55786 0,-0.8636 -0.220133,-1.55786 -0.203199,-0.7112 -0.609599,-1.20227 -0.389465,-0.508 -0.982131,-0.77893 -0.575732,-0.27093 -1.303864,-0.27093 -0.745065,0 -1.320797,0.28786 -0.575733,0.27094 -0.982132,0.77894 -0.389466,0.49106 -0.609599,1.20226 -0.203199,0.69427 -0.203199,1.54093 z m 8.957715,0 q 0,1.50706 -0.457199,2.65853 -0.440265,1.13453 -1.219197,1.91346 -0.778932,0.762 -1.862663,1.15147 -1.066798,0.38946 -2.302929,0.38946 -1.202264,0 -2.269062,-0.38946 -1.066798,-0.38947 -1.862663,-1.15147 -0.795865,-0.77893 -1.253064,-1.91346 -0.4572,-1.15147 -0.4572,-2.65853 0,-1.50706 0.474133,-2.64159 0.474132,-1.15147 1.269997,-1.9304 0.812799,-0.77893 1.862663,-1.1684 1.066798,-0.38946 2.235196,-0.38946 1.202264,0 2.269062,0.38946 1.066798,0.38947 1.862663,1.1684 0.795865,0.77893 1.253064,1.9304 0.457199,1.13453 0.457199,2.64159 z" />
      <path
         id="path872"
         style="font-style:normal;font-variant:normal;font-weight:bold;font-stretch:normal;font-size:16.9333px;font-family:Ubuntu;-inkscape-font-specification:'Ubuntu Bold';letter-spacing:0.79375px;fill:#2c5aa0;fill-opacity:1;stroke:#2c5aa0;stroke-width:0.264583;stroke-miterlimit:4;stroke-dasharray:none;stroke-opacity:1"
         d="m 76.261508,240.62531 c -0.756354,-1.34338 -1.662546,-2.6573 -2.543078,-3.96681 -0.880531,-1.30951 -1.817507,-2.54564 -2.810927,-3.70839 v 7.68772 h -2.607729 v -11.73478 c 1.98203,-0.19012 2.31337,0.087 3.38666,1.3716 0.451555,0.54187 0.908754,1.12324 1.371598,1.74413 0.474132,0.60959 0.94262,1.24741 1.405464,1.91346 0.462843,0.65475 0.897465,1.28693 1.303864,1.89653 v -6.92572 l 2.71241,-0.0125 -0.08775,11.7473 z" />
    </g>
  </g>
</svg>
